<svg width="30" height="30" viewBox="0 0 20 20" fill="none" xmlns="http://www.w3.org/2000/svg">
<path d="M11.2632 12.8051C11.1072 12.6491 10.8552 12.6491 10.6992 12.8051L9.06703 14.4378C8.86302 14.6419 7.81892 14.3577 6.73483 13.2733C5.65073 12.1889 5.36271 11.1445 5.57072 10.9404L7.20287 9.30772C7.27888 9.23169 7.31888 9.13165 7.31888 9.02361C7.31888 8.91557 7.27488 8.81553 7.20287 8.7395L2.48645 4.02961C2.33044 3.87355 2.07842 3.87355 1.9224 4.02961L0.706294 5.2461C-0.181784 6.13445 -0.233789 7.71509 0.558281 9.69188C1.31035 11.5566 2.73447 13.5974 4.57064 15.4342C7.45489 18.3193 10.6232 20 12.8114 20C13.6114 20 14.2835 19.7759 14.7595 19.2997L15.9756 18.0832C16.0517 18.0072 16.0917 17.9072 16.0917 17.7991C16.0917 17.6911 16.0477 17.591 15.9756 17.515L11.2632 12.8051ZM14.1915 18.7315C12.9394 19.984 8.99903 18.7315 5.13469 14.8659C3.37053 13.1012 2.01041 11.1565 1.29835 9.39176C0.642289 7.7551 0.634288 6.44658 1.27034 5.81032L2.20243 4.87795L6.34679 9.02361L4.99867 10.3721C4.25061 11.1204 5.04268 12.7171 6.16278 13.8375C7.28688 14.962 8.87902 15.7503 9.62708 15.002L10.9752 13.6535L15.1196 17.7991L14.1915 18.7315ZM9.7791 0C9.55908 0 9.37906 0.180072 9.37906 0.40016C9.37906 0.620248 9.55908 0.80032 9.7791 0.80032C14.9716 0.80032 19.1999 5.02601 19.1999 10.2241C19.1999 10.4442 19.3799 10.6242 19.6 10.6242C19.82 10.6242 20 10.4442 20 10.2241C20 4.58583 15.4156 0 9.7791 0Z" fill="#F26C4F"/>
<path d="M9.40963 3C9.18433 3 9 3.18433 9 3.40963C9 3.63492 9.18433 3.81925 9.40963 3.81925C13.1454 3.81925 16.1807 6.85868 16.1807 10.5904C16.1807 10.8157 16.3651 11 16.5904 11C16.8157 11 17 10.8157 17 10.5904C17.0041 6.40809 13.596 3 9.40963 3Z" fill="#F26C4F"/>
<path d="M13.2013 10.6006C13.2013 10.8203 13.381 11 13.6006 11C13.8203 11 14 10.8203 14 10.6006C14 8.0647 11.9353 6 9.39936 6C9.17971 6 9 6.17971 9 6.39936C9 6.61901 9.17971 6.79872 9.39936 6.79872C11.496 6.80272 13.2013 8.50799 13.2013 10.6006Z" fill="#F26C4F"/>
</svg>
