<svg width="50" height="50" viewBox="0 0 50 50" fill="none" xmlns="http://www.w3.org/2000/svg">
<path d="M25 50C11.2069 50 0 38.7931 0 25C0 11.2069 11.2069 0 25 0C38.7931 0 50 11.2069 50 25C50 38.7931 38.7931 50 25 50ZM25 4.52586C13.6853 4.52586 4.52586 13.6853 4.52586 25C4.52586 36.3147 13.6853 45.4741 25 45.4741C36.3147 45.4741 45.4741 36.3147 45.4741 25C45.4741 13.6853 36.3147 4.52586 25 4.52586ZM33.2974 35.5603C32.7586 35.5603 32.1121 35.3448 31.681 34.9138L23.3836 26.6164C22.9526 26.1853 22.7371 25.6466 22.7371 25V9.375C22.7371 8.0819 23.7069 7.11207 25 7.11207C26.2931 7.11207 27.2629 8.0819 27.2629 9.375V24.1379L34.9138 31.7888C35.7759 32.6509 35.7759 34.0517 34.9138 35.0216C34.4828 35.3448 33.8362 35.5603 33.2974 35.5603Z" fill="#F16C4F"/>
</svg>
