<svg width="69" height="50" viewBox="0 0 69 50" fill="none" xmlns="http://www.w3.org/2000/svg">
<path d="M0.918303 22.8517L13.464 10.3798C13.7533 10.082 14.0994 9.84449 14.4821 9.68108C14.8647 9.51767 15.2763 9.43166 15.6927 9.42806C16.1092 9.42446 16.5222 9.50335 16.9077 9.66013C17.2931 9.8169 17.6433 10.0484 17.9378 10.3412C18.2323 10.6339 18.4652 10.9821 18.6229 11.3652C18.7806 11.7484 18.8599 12.159 18.8563 12.573C18.8527 12.987 18.7662 13.3962 18.6018 13.7766C18.4374 14.157 18.1985 14.501 17.8989 14.7886L7.57066 25.0562L17.8989 35.3237C18.1985 35.6113 18.4374 35.9553 18.6018 36.3358C18.7662 36.7162 18.8527 37.1253 18.8563 37.5393C18.8599 37.9533 18.7806 38.3639 18.6229 38.7471C18.4652 39.1303 18.2323 39.4784 17.9378 39.7711C17.6433 40.0639 17.2931 40.2954 16.9077 40.4522C16.5222 40.609 16.1092 40.6879 15.6927 40.6843C15.2763 40.6807 14.8647 40.5946 14.4821 40.4312C14.0994 40.2678 13.7533 40.0303 13.464 39.7325L0.918303 27.2606C0.330314 26.6759 0 25.8829 0 25.0562C0 24.2294 0.330314 23.4365 0.918303 22.8517ZM55.536 10.3798C55.2467 10.082 54.9006 9.84449 54.5179 9.68108C54.1353 9.51767 53.7237 9.43166 53.3073 9.42806C52.8908 9.42446 52.4778 9.50335 52.0924 9.66013C51.7069 9.8169 51.3567 10.0484 51.0622 10.3412C50.7677 10.6339 50.5348 10.9821 50.3771 11.3652C50.2194 11.7484 50.1401 12.159 50.1437 12.573C50.1473 12.987 50.2338 13.3962 50.3982 13.7766C50.5626 14.157 50.8015 14.501 51.1011 14.7886L61.4293 25.0562L51.1011 35.3237C50.8015 35.6113 50.5626 35.9553 50.3982 36.3358C50.2338 36.7162 50.1473 37.1253 50.1437 37.5393C50.1401 37.9533 50.2194 38.3639 50.3771 38.7471C50.5348 39.1303 50.7677 39.4784 51.0622 39.7711C51.3567 40.0639 51.7069 40.2954 52.0924 40.4522C52.4778 40.609 52.8908 40.6879 53.3073 40.6843C53.7237 40.6807 54.1353 40.5946 54.5179 40.4312C54.9006 40.2678 55.2467 40.0303 55.536 39.7325L68.0817 27.2606C68.6697 26.6759 69 25.8829 69 25.0562C69 24.2294 68.6697 23.4365 68.0817 22.8517L55.536 10.3798ZM37.7587 2.37597L25.213 46.0277C24.9847 46.8224 25.083 47.6747 25.4864 48.3973C25.8899 49.12 26.5654 49.6538 27.3646 49.8815C27.6456 49.9587 27.9356 49.9985 28.2272 50C28.9087 49.9995 29.5716 49.7783 30.1155 49.3699C30.6593 48.9614 31.0545 48.388 31.2413 47.7363L43.787 4.08462C43.9177 3.68599 43.9662 3.26523 43.9297 2.84752C43.8931 2.42981 43.7721 2.02373 43.574 1.65356C43.3759 1.28339 43.1048 0.956748 42.7768 0.693161C42.4488 0.429574 42.0707 0.234464 41.665 0.119497C41.2594 0.00453104 40.8347 -0.0279278 40.4162 0.0240623C39.9976 0.0760525 39.594 0.211424 39.2293 0.422079C38.8646 0.632733 38.5464 0.914343 38.2938 1.25006C38.0411 1.58579 37.8591 1.96872 37.7587 2.37597Z" fill="#F16C4F"/>
</svg>
