<svg width="20" height="20" viewBox="0 0 51 51" fill="none" xmlns="http://www.w3.org/2000/svg">
<path d="M47.8129 0C48.7258 0 49.4852 0.302953 50.0911 0.908857C50.697 1.51476 51 2.27418 51 3.18712C51 4.08373 50.693 4.83907 50.0789 5.45314L30.006 25.5L50.0789 45.5469C50.693 46.1609 51 46.9163 51 47.8129C51 48.7258 50.697 49.4852 50.0911 50.0911C49.4852 50.697 48.7258 51 47.8129 51C46.9163 51 46.1609 50.693 45.5469 50.0789L25.5 30.006L5.45314 50.0789C4.83907 50.693 4.08373 51 3.18712 51C2.27418 51 1.51476 50.697 0.908857 50.0911C0.302953 49.4852 0 48.7258 0 47.8129C0 46.9163 0.307033 46.1609 0.921097 45.5469L20.994 25.5L0.921097 5.45314C0.307033 4.83907 0 4.08373 0 3.18712C0 2.27418 0.302953 1.51476 0.908857 0.908857C1.51476 0.302953 2.27418 0 3.18712 0C4.08373 0 4.83907 0.307033 5.45314 0.921097L25.5 20.994L45.5469 0.921097C46.1609 0.307033 46.9163 0 47.8129 0Z" fill="#F26C4F"/>
</svg>
