<svg width="50" height="50" viewBox="0 0 139 130" fill="none" xmlns="http://www.w3.org/2000/svg">
<path d="M60.4613 93.2113C53.484 92.2211 47.1968 88.2858 43.2865 82.3194L1.95974 18.8213C-1.26053 13.8705 -0.442674 7.3201 3.90213 3.28324C8.24694 -0.753621 14.8664 -1.10907 19.6201 2.4454L80.1151 47.5364C86.249 52.1064 89.8781 59.2407 89.9293 66.8574L60.4613 93.2113ZM65.4706 99.6601L95.1175 73.1539C110.401 73.7125 122.643 86.2293 122.643 101.564C122.643 102.554 122.592 103.545 122.49 104.509C122.03 108.952 125.097 113.751 129.595 113.751H130.822C135.345 113.751 139 117.382 139 121.876C139 126.369 135.345 130 130.822 130H94.0185C78.1983 130 65.3939 117.28 65.3939 101.564C65.3939 100.93 65.4195 100.295 65.445 99.6601H65.4706Z" fill="#F26C4F"/>
</svg>
