<svg width="20" height="20" viewBox="0 0 50 50" fill="none" xmlns="http://www.w3.org/2000/svg">
<path fill-rule="evenodd" clip-rule="evenodd" d="M40.625 0H9.375C4.19737 0 0 4.19737 0 9.375V40.625C0 45.8026 4.19737 50 9.375 50H40.625C45.8026 50 50 45.8026 50 40.625V9.375C50 4.19737 45.8026 0 40.625 0ZM39.3553 26.9276H34.6776V44.2434H26.8618V26.9276H23.8289V21.0921H26.8618V17.375C26.8618 12.5066 28.8882 9.61184 34.625 9.61184H40.4408V15.4211H37.0592C34.8224 15.4211 34.6776 16.2566 34.6776 17.8092L34.6711 21.0855H39.9868L39.3487 26.9211L39.3553 26.9276Z" fill="white"/>
</svg>
