<svg width="20" height="20" viewBox="0 0 50 50" fill="none" xmlns="http://www.w3.org/2000/svg">
<path d="M16.668 25C16.668 20.3978 20.3978 16.666 25 16.666C29.6022 16.666 33.334 20.3978 33.334 25C33.334 29.6022 29.6022 33.334 25 33.334C20.3978 33.334 16.668 29.6022 16.668 25ZM12.1628 25C12.1628 32.0901 17.9099 37.8372 25 37.8372C32.0901 37.8372 37.8372 32.0901 37.8372 25C37.8372 17.9099 32.0901 12.1628 25 12.1628C17.9099 12.1628 12.1628 17.9099 12.1628 25ZM35.3453 11.6539C35.3453 13.3098 36.6882 14.6547 38.3461 14.6547C40.002 14.6547 41.3469 13.3098 41.3469 11.6539C41.3469 9.99798 40.004 8.65509 38.3461 8.65509C36.6882 8.65509 35.3453 9.99798 35.3453 11.6539ZM14.899 45.3494C12.4616 45.2383 11.1369 44.8324 10.2565 44.4891C9.08926 44.0347 8.25727 43.4935 7.38086 42.6191C6.50646 41.7448 5.96325 40.9128 5.5109 39.7456C5.16761 38.8651 4.76171 37.5404 4.65065 35.103C4.52948 32.4677 4.50525 31.6761 4.50525 25C4.50525 18.3239 4.5315 17.5343 4.65065 14.897C4.76171 12.4596 5.16963 11.1369 5.5109 10.2544C5.96527 9.08724 6.50646 8.25525 7.38086 7.37884C8.25525 6.50444 9.08724 5.96123 10.2565 5.50889C11.1369 5.16559 12.4616 4.75969 14.899 4.64863C17.5343 4.52746 18.3259 4.50323 25 4.50323C31.6761 4.50323 32.4657 4.52948 35.103 4.64863C37.5404 4.75969 38.8631 5.16761 39.7456 5.50889C40.9128 5.96123 41.7448 6.50444 42.6212 7.37884C43.4956 8.25323 44.0368 9.08724 44.4911 10.2544C44.8344 11.1349 45.2403 12.4596 45.3514 14.897C45.4725 17.5343 45.4968 18.3239 45.4968 25C45.4968 31.6741 45.4725 32.4657 45.3514 35.103C45.2403 37.5404 44.8324 38.8651 44.4911 39.7456C44.0368 40.9128 43.4956 41.7448 42.6212 42.6191C41.7468 43.4935 40.9128 44.0347 39.7456 44.4891C38.8651 44.8324 37.5404 45.2383 35.103 45.3494C32.4677 45.4705 31.6761 45.4947 25 45.4947C18.3259 45.4947 17.5343 45.4705 14.899 45.3494M14.6931 0.151454C12.0315 0.272617 10.2141 0.694669 8.6248 1.3126C6.98102 1.95073 5.58764 2.80695 4.19628 4.19628C2.80695 5.58562 1.95073 6.979 1.3126 8.6248C0.694669 10.2141 0.272617 12.0315 0.151454 14.6931C0.0282714 17.3586 0 18.2108 0 25C0 31.7892 0.0282714 32.6414 0.151454 35.3069C0.272617 37.9685 0.694669 39.7859 1.3126 41.3752C1.95073 43.019 2.80493 44.4144 4.19628 45.8037C5.58562 47.1931 6.979 48.0473 8.6248 48.6874C10.2161 49.3053 12.0315 49.7274 14.6931 49.8485C17.3607 49.9697 18.2108 50 25 50C31.7912 50 32.6414 49.9717 35.3069 49.8485C37.9685 49.7274 39.7859 49.3053 41.3752 48.6874C43.019 48.0473 44.4124 47.1931 45.8037 45.8037C47.1931 44.4144 48.0473 43.019 48.6874 41.3752C49.3053 39.7859 49.7294 37.9685 49.8485 35.3069C49.9697 32.6393 49.998 31.7892 49.998 25C49.998 18.2108 49.9697 17.3586 49.8485 14.6931C49.7274 12.0315 49.3053 10.2141 48.6874 8.6248C48.0473 6.98102 47.1931 5.58764 45.8037 4.19628C44.4144 2.80695 43.019 1.95073 41.3772 1.3126C39.7859 0.694669 37.9685 0.270598 35.309 0.151454C32.6434 0.0302908 31.7912 0 25.002 0C18.2108 0 17.3607 0.0282714 14.6931 0.151454" fill="white"/>
</svg>
