<svg width="23" height="30" viewBox="0 0 13 20" fill="none" xmlns="http://www.w3.org/2000/svg">
<path d="M12.6928 4.97789C12.6257 4.71099 12.4892 4.42676 12.3884 4.17787C11.1808 1.10225 8.54247 0 6.41215 0C3.56032 0 0.419355 2.02671 0 6.20436V7.05793C0 7.09349 0.0115324 7.4135 0.0280969 7.5735C0.263145 9.56443 1.74535 11.6803 2.85245 13.6712C4.04342 15.8044 5.27926 17.9026 6.50398 20C7.25882 18.6313 8.01115 17.2446 8.749 15.9112C8.95008 15.5199 9.18324 15.1288 9.38453 14.7554C9.51873 14.5068 9.77495 14.2581 9.89216 14.0268C11.0829 11.7163 13 9.38687 13 7.09349V6.15125C13 5.90258 12.7092 5.03144 12.6928 4.97789ZM6.46436 9.26243C5.62606 9.26243 4.70852 8.8182 4.25561 7.59128C4.1881 7.39594 4.19355 7.0046 4.19355 6.96882V6.4177C4.19355 4.85366 5.44658 4.14231 6.53669 4.14231C7.87863 4.14231 8.91674 5.28034 8.91674 6.70259C8.91674 8.12485 7.80629 9.26243 6.46436 9.26243Z" fill="#F26C4F"/>
</svg>
