<?xml version="1.0" standalone="no"?>
<!DOCTYPE svg PUBLIC "-//W3C//DTD SVG 20010904//EN"
 "http://www.w3.org/TR/2001/REC-SVG-20010904/DTD/svg10.dtd">
<svg version="1.0" xmlns="http://www.w3.org/2000/svg"
 width="495.000000pt" height="360.000000pt" viewBox="0 0 495.000000 360.000000"
 preserveAspectRatio="xMidYMid meet">

<g transform="translate(0.000000,360.000000) scale(0.100000,-0.100000)"
fill="#FFF" stroke="none">
<path d="M2929 2224 c-368 -368 -668 -672 -667 -676 2 -5 95 -123 208 -263
l205 -254 178 -1 c97 0 177 2 177 5 0 4 -122 152 -271 331 -148 179 -272 331
-275 337 -2 7 252 268 566 582 313 313 570 575 570 582 0 6 -5 15 -11 19 -6 3
-295 -277 -680 -662z"/>
<path d="M1923 2492 l-23 -3 0 -544 0 -544 -370 -373 c-294 -297 -367 -375
-358 -386 9 -11 197 172 939 914 510 510 926 931 923 936 -3 4 -83 8 -177 8
l-172 0 -257 -262 -257 -263 -1 258 0 257 -42 2 c-74 3 -182 3 -205 0z"/>
<path d="M2032 1326 l-132 -134 0 -81 0 -81 135 0 135 0 0 215 c0 118 -1 215
-3 215 -2 0 -63 -60 -135 -134z"/>
</g>
</svg>
