<svg width="56" height="50" viewBox="0 0 56 50" fill="none" xmlns="http://www.w3.org/2000/svg">
<path d="M53.198 0H2.80196C2.05909 0.000827121 1.34688 0.293751 0.821595 0.814506C0.296307 1.33526 0.00083432 2.04132 0 2.77778V47.2222C0.00083432 47.9587 0.296307 48.6647 0.821595 49.1855C1.34688 49.7062 2.05909 49.9992 2.80196 50H53.198C53.9409 49.9992 54.6531 49.7062 55.1784 49.1855C55.7037 48.6647 55.9992 47.9587 56 47.2222V2.77778C55.9992 2.04132 55.7037 1.33526 55.1784 0.814506C54.6531 0.293751 53.9409 0.000827121 53.198 0ZM52.2641 3.7037V12.0348L3.73594 11.978V3.7037H52.2641ZM3.73594 46.2963V15.6817L52.2641 15.7385V46.2963H3.73594Z" fill="#F16C4F"/>
</svg>
