<svg width="40" height="40" viewBox="0 0 288 288" fill="none" xmlns="http://www.w3.org/2000/svg">
<g clip-path="url(#clip0_2_2)">
<path d="M48 156C54.6274 156 60 150.627 60 144C60 137.373 54.6274 132 48 132C41.3726 132 36 137.373 36 144C36 150.627 41.3726 156 48 156Z" fill="white"/>
<path d="M240.72 132H95.28C89.0502 132 84 137.05 84 143.28V144.72C84 150.95 89.0502 156 95.28 156H240.72C246.95 156 252 150.95 252 144.72V143.28C252 137.05 246.95 132 240.72 132Z" fill="white"/>
<path d="M240.72 192H47.28C41.0502 192 36 197.05 36 203.28V204.72C36 210.95 41.0502 216 47.28 216H240.72C246.95 216 252 210.95 252 204.72V203.28C252 197.05 246.95 192 240.72 192Z" fill="white"/>
<path d="M240.72 72H47.28C41.0502 72 36 77.0502 36 83.28V84.72C36 90.9498 41.0502 96 47.28 96H240.72C246.95 96 252 90.9498 252 84.72V83.28C252 77.0502 246.95 72 240.72 72Z" fill="white"/>
</g>
<defs>
<clipPath id="clip0_2_2">
<rect width="288" height="288" fill="white"/>
</clipPath>
</defs>
</svg>
