<svg width="32" height="50" viewBox="0 0 32 50" fill="none" xmlns="http://www.w3.org/2000/svg">
<path d="M27.4286 50C28.641 50 29.8038 49.5211 30.6611 48.6687C31.5184 47.8162 32 46.6601 32 45.4545V4.54545C32 3.33993 31.5184 2.18377 30.6611 1.33133C29.8038 0.478895 28.641 0 27.4286 0H4.57143C3.35901 0 2.19625 0.478895 1.33894 1.33133C0.481631 2.18377 0 3.33993 0 4.54545V45.4545C0 46.6601 0.481631 47.8162 1.33894 48.6687C2.19625 49.5211 3.35901 50 4.57143 50H27.4286ZM4.57143 4.54545H27.4286V45.4545H4.57143V4.54545ZM18.2857 40.9091C18.2857 41.3586 18.1517 41.798 17.9005 42.1717C17.6493 42.5455 17.2924 42.8368 16.8747 43.0088C16.457 43.1808 15.9975 43.2258 15.5541 43.1381C15.1107 43.0505 14.7034 42.834 14.3838 42.5162C14.0641 42.1983 13.8464 41.7933 13.7582 41.3525C13.67 40.9116 13.7153 40.4546 13.8883 40.0394C14.0613 39.6241 14.3542 39.2691 14.7301 39.0194C15.106 38.7697 15.5479 38.6364 16 38.6364C16.6062 38.6364 17.1876 38.8758 17.6162 39.302C18.0449 39.7282 18.2857 40.3063 18.2857 40.9091Z" fill="#F16C4F"/>
</svg>
