<svg width="24" height="20" viewBox="0 0 14 10" fill="white" xmlns="http://www.w3.org/2000/svg">
<path d="M12.8955 0.2295C12.8037 0.0864501 12.645 0 12.4751 0H9C8.17285 0 7.5 0.67285 7.5 1.5V5C7.5 5.82715 8.17285 6.5 9 6.5H9.9927C9.52835 7.84475 9.13185 8.48875 7.8125 9.03855C7.5923 9.13035 7.46775 9.3647 7.51465 9.5986C7.5615 9.83205 7.7666 10 8.0049 10C8.0054 10 8.0054 10 8.0059 10C10.7584 9.9951 12.3394 8.8916 13.4605 6.19435C13.8183 5.34715 14 4.44045 14 3.5C14 2.0537 13.5625 1.2661 12.8955 0.2295ZM4.9751 0H1.5C0.67285 0 0 0.67285 0 1.5V5C0 5.82715 0.67285 6.5 1.5 6.5H2.4927C2.02835 7.84475 1.63185 8.48875 0.3125 9.03855C0.0923 9.13035 -0.03225 9.3647 0.01465 9.5986C0.0615 9.83205 0.2666 10 0.5049 10C0.5054 10 0.5054 10 0.5059 10C3.25835 9.9951 4.8394 8.8916 5.9605 6.19435C6.31835 5.34715 6.5 4.44045 6.5 3.5C6.5 2.0537 6.0625 1.2661 5.3955 0.2295C5.3037 0.0864501 5.145 0 4.9751 0Z" fill="white"/>
</svg>
