<svg width="50" height="50" viewBox="0 0 50 50" fill="none" xmlns="http://www.w3.org/2000/svg">
<path d="M49.2489 45.5882L36.5079 32.8431C42.7559 24.8774 42.1433 13.2353 34.7927 6.0049C30.9949 2.20588 25.8495 0 20.3366 0C14.8237 0 9.80077 2.08333 6.00297 6.0049C2.08266 9.80392 0 14.951 0 20.3431C0 25.7353 2.08266 30.8824 6.00297 34.8039C9.80077 38.6029 14.9462 40.8088 20.4591 40.8088C24.992 40.8088 29.4023 39.3382 32.9551 36.5196L45.6961 49.2647C46.1861 49.7549 46.7987 50 47.5337 50C48.2688 50 48.8813 49.7549 49.3714 49.2647C50.2289 48.2843 50.2289 46.5686 49.2489 45.5882ZM9.55575 31.1275C6.73803 28.3088 5.1454 24.3873 5.1454 20.3431C5.1454 16.299 6.73803 12.5 9.55575 9.55882C12.496 6.7402 16.2938 5.14706 20.3366 5.14706C24.3794 5.14706 28.1772 6.7402 31.1174 9.55882C36.9979 15.5637 36.9979 25.1225 31.1174 31.1275C28.2997 33.9461 24.3794 35.5392 20.3366 35.5392C16.2938 35.6618 12.496 34.0686 9.55575 31.1275Z" fill="#F16C4F"/>
</svg>
